<?xml version="1.0" encoding="iso-8859-1"?>
<!-- Generator: Adobe Illustrator 18.1.1, SVG Export Plug-In . SVG Version: 6.00 Build 0)  -->
<svg version="1.1" id="Capa_1" xmlns="http://www.w3.org/2000/svg" xmlns:xlink="http://www.w3.org/1999/xlink" x="0px" y="0px"
	 viewBox="0 0 612.074 612.074" style="enable-background:new 0 0 612.074 612.074;" xml:space="preserve">
<g>
	<path d="M306.037,0C136.997,0,0,136.997,0,306.037s136.997,306.037,306.037,306.037s306.037-136.997,306.037-306.037
		S475.077,0,306.037,0z M306.037,583.221c-152.203,0-276.368-124.165-276.368-276.368S153.834,30.485,306.037,30.485
		S582.405,154.65,582.405,306.853S458.24,583.221,306.037,583.221z M430.202,314.048c0,68.091-55.259,124.165-124.165,124.165
		s-124.165-55.259-124.165-124.165c0-39.237,17.653-75.285,48.88-98.502c6.379-4.821,16.021-4.005,20.843,3.189
		c4.821,6.379,4.005,16.021-3.189,20.843c-24.032,17.653-37.68,45.69-37.68,75.285c0,52.069,42.427,94.496,94.496,94.496
		c52.069,0,94.496-42.427,94.496-94.496c0-29.669-13.648-56.891-37.68-75.285c-6.379-4.821-8.011-14.39-3.189-20.843
		c4.821-6.379,14.39-8.011,20.843-3.189C411.733,238.762,430.202,274.81,430.202,314.048z M290.832,314.048V177.866
		c0-8.011,6.379-14.39,14.39-14.39c8.011,0,14.39,6.379,14.39,14.39v136.181c0,8.011-6.379,14.39-14.39,14.39
		C298.026,329.253,290.832,322.058,290.832,314.048z"/>
</g>
<g>
</g>
<g>
</g>
<g>
</g>
<g>
</g>
<g>
</g>
<g>
</g>
<g>
</g>
<g>
</g>
<g>
</g>
<g>
</g>
<g>
</g>
<g>
</g>
<g>
</g>
<g>
</g>
<g>
</g>
</svg>
